<?xml version="1.0" encoding="utf-8"?><!-- Uploaded to: SVG Repo, www.svgrepo.com, Generator: SVG Repo Mixer Tools -->

<svg display="none" xmlns="http://www.w3.org/2000/svg">
    
    <symbol id="logo" viewBox="0 0 220 160">
        <path d="M15 15H120C166.944 15 205 53.0558 205 100V145H100C53.0558 145 15 106.944 15 60V15Z" stroke-width="30"/>
    </symbol>
    
    <symbol id="sign-in" viewBox="0 0 15 15">
        <path fill-rule="evenodd" clip-rule="evenodd" d="M7 1L14 1V14H7V13H13V2L7 2V1ZM7.85355 4.14645L11.1932 7.48614L7.8674 11.0891L7.13259 10.4109L9.358 8L0.999996 8V7L9.29289 7L7.14644 4.85355L7.85355 4.14645Z"/>
    </symbol>

    <symbol id="search" viewBox="0 0 24 24">
        <path fill-rule="evenodd" clip-rule="evenodd" d="M10 5C7.23858 5 5 7.23858 5 10C5 12.7614 7.23858 15 10 15C11.381 15 12.6296 14.4415 13.5355 13.5355C14.4415 12.6296 15 11.381 15 10C15 7.23858 12.7614 5 10 5ZM3 10C3 6.13401 6.13401 3 10 3C13.866 3 17 6.13401 17 10C17 11.5719 16.481 13.0239 15.6063 14.1921L20.7071 19.2929C21.0976 19.6834 21.0976 20.3166 20.7071 20.7071C20.3166 21.0976 19.6834 21.0976 19.2929 20.7071L14.1921 15.6063C13.0239 16.481 11.5719 17 10 17C6.13401 17 3 13.866 3 10Z"/>
    </symbol>

    <symbol id="facebook" viewBox="-337 273 123.5 256">
        <path d="M-260.9,327.8c0-10.3,9.2-14,19.5-14c10.3,0,21.3,3.2,21.3,3.2l6.6-39.2c0,0-14-4.8-47.4-4.8c-20.5,0-32.4,7.8-41.1,19.3
	    c-8.2,10.9-8.5,28.4-8.5,39.7v25.7H-337V396h26.5v133h49.6V396h39.3l2.9-38.3h-42.2V327.8z"/>
    </symbol>

    <symbol id="telegram" viewBox="0 0 24 24">
        <path d="m20.665 3.717-17.73 6.837c-1.21.486-1.203 1.161-.222 1.462l4.552 1.42 10.532-6.645c.498-.303.953-.14.579.192l-8.533 7.701h-.002l.002.001-.314 4.692c.46 0 .663-.211.921-.46l2.211-2.15 4.599 3.397c.848.467 1.457.227 1.668-.785l3.019-14.228c.309-1.239-.473-1.8-1.282-1.434z"/>
    </symbol>

    <symbol id="vk" viewBox="-2.5 0 32 32">
        <path d="M16.563 15.75c-0.5-0.188-0.5-0.906-0.531-1.406-0.125-1.781 0.5-4.5-0.25-5.656-0.531-0.688-3.094-0.625-4.656-0.531-0.438 0.063-0.969 0.156-1.344 0.344s-0.75 0.5-0.75 0.781c0 0.406 0.938 0.344 1.281 0.875 0.375 0.563 0.375 1.781 0.375 2.781 0 1.156-0.188 2.688-0.656 2.75-0.719 0.031-1.125-0.688-1.5-1.219-0.75-1.031-1.5-2.313-2.063-3.563-0.281-0.656-0.438-1.375-0.844-1.656-0.625-0.438-1.75-0.469-2.844-0.438-1 0.031-2.438-0.094-2.719 0.5-0.219 0.656 0.25 1.281 0.5 1.813 1.281 2.781 2.656 5.219 4.344 7.531 1.563 2.156 3.031 3.875 5.906 4.781 0.813 0.25 4.375 0.969 5.094 0 0.25-0.375 0.188-1.219 0.313-1.844s0.281-1.25 0.875-1.281c0.5-0.031 0.781 0.406 1.094 0.719 0.344 0.344 0.625 0.625 0.875 0.938 0.594 0.594 1.219 1.406 1.969 1.719 1.031 0.438 2.625 0.313 4.125 0.25 1.219-0.031 2.094-0.281 2.188-1 0.063-0.563-0.563-1.375-0.938-1.844-0.938-1.156-1.375-1.5-2.438-2.563-0.469-0.469-1.063-0.969-1.063-1.531-0.031-0.344 0.25-0.656 0.5-1 1.094-1.625 2.188-2.781 3.188-4.469 0.281-0.5 0.938-1.656 0.688-2.219-0.281-0.625-1.844-0.438-2.813-0.438-1.25 0-2.875-0.094-3.188 0.156-0.594 0.406-0.844 1.063-1.125 1.688-0.625 1.438-1.469 2.906-2.344 4-0.313 0.375-0.906 1.156-1.25 1.031z"></path>
    </symbol>

    <symbol id="youtube" viewBox="0 0 512 512">
        <path d="M34.354,0.5h45.959l29.604,91.096h2.863L141.013,0.5h46.353l-53.107,133.338v94.589H88.641V138.08
		L34.354,0.5z M192.193,98.657c0-13.374,5.495-24.003,16.493-31.938c10.984-7.934,25.749-11.901,44.3-11.901
		c16.893,0,30.728,4.192,41.506,12.55c10.805,8.358,16.193,19.112,16.193,32.287v89.2c0,14.771-5.301,26.373-15.868,34.782
		c-10.579,8.408-25.151,12.625-43.684,12.625c-17.859,0-32.143-4.342-42.866-13.024c-10.709-8.683-16.074-20.36-16.074-35.057
		V98.657z M234.205,191.424c0,4.766,1.44,8.409,4.354,11.029c2.907,2.595,7.055,3.867,12.451,3.867c5.532,0,9.93-1.297,13.18-3.942
		c3.256-2.669,4.891-6.313,4.891-10.954V97.359c0-3.768-1.672-6.812-4.99-9.132c-3.318-2.321-7.679-3.494-13.081-3.494
		c-4.972,0-9.027,1.173-12.133,3.494c-3.119,2.32-4.672,5.364-4.672,9.132V191.424z M459.992,57.588v172.711h-40.883v-19.063
		c-7.547,7.037-15.381,12.375-23.541,16.069c-8.146,3.643-16.068,5.489-23.729,5.489c-9.455,0-16.592-2.57-21.383-7.71
		c-4.791-5.141-7.186-12.85-7.186-23.13V57.588h40.895v132.39c0,4.117,0.861,7.061,2.57,8.907c1.723,1.822,4.492,2.745,8.322,2.745
		c3.018,0,6.824-1.223,11.4-3.643c4.604-2.42,8.82-5.514,12.65-9.282V57.588H459.992z M421.68,363.262
		c-2.008-2.221-5.203-3.368-9.594-3.368c-4.59,0-7.883,1.147-9.879,3.368c-1.996,2.245-2.994,5.963-2.994,11.153v10.754h25.473
		v-10.754C424.686,369.225,423.688,365.507,421.68,363.262z M300.855,444.228c2.195,0.898,4.516,1.322,6.961,1.322
		c3.543,0,6.113-0.849,7.785-2.595c1.67-1.722,2.494-4.591,2.494-8.533v-62.178c0-4.191-1.023-7.36-3.068-9.531
		c-2.059-2.171-5.064-3.244-8.957-3.244c-2.059,0-4.092,0.399-6.102,1.198c-2.008,0.823-3.991,2.096-5.95,3.792v75.402
		C296.364,441.907,298.646,443.354,300.855,444.228z M490.496,312.587c0-29.941-30.754-54.219-68.654-54.219
		c-54.068-1.822-109.396-2.62-165.842-2.521c-56.427-0.1-111.756,0.698-165.843,2.521c-37.881,0-68.633,24.277-68.633,54.219
		c-2.277,23.678-3.263,47.381-3.175,71.085c-0.087,23.703,0.898,47.406,3.175,71.11c0,29.916,30.752,54.192,68.633,54.192
		c54.087,1.797,109.416,2.596,165.843,2.521c56.446,0.075,111.774-0.724,165.842-2.521c37.9,0,68.654-24.276,68.654-54.192
		c2.27-23.704,3.254-47.407,3.154-71.11C493.75,359.968,492.766,336.265,490.496,312.587z M121.251,463.465v1.797H88.778v-1.797
		V321.644H55.182v-1.771v-22.605v-1.771h99.672v1.771v22.605v1.771h-33.603V463.465z M236.768,341.33v122.135v1.797h-28.831v-1.797
		v-11.901c-5.327,5.064-10.848,8.882-16.592,11.527c-5.757,2.619-11.334,3.942-16.748,3.942c-6.662,0-11.684-1.847-15.065-5.515
		c-3.387-3.692-5.078-9.231-5.078-16.617v-1.797V341.33v-1.772h28.844v1.772v93.216c0,2.92,0.599,5.065,1.802,6.363
		c1.217,1.322,3.175,1.971,5.876,1.971c2.127,0,4.803-0.873,8.047-2.595c3.231-1.747,6.2-3.967,8.914-6.662V341.33v-1.772h28.831
		V341.33z M347.775,370.847v66.943v1.797c0,8.808-2.258,15.544-6.773,20.235c-4.518,4.641-11.055,6.986-19.588,6.986
		c-5.639,0-10.652-0.898-15.07-2.695c-4.428-1.821-8.532-4.616-12.325-8.384v7.735v1.797h-29.105v-1.797V297.267v-1.771h29.105
		v1.771v52.297c3.893-3.793,8.009-6.662,12.376-8.608c4.379-1.971,8.809-2.969,13.273-2.969c9.107,0,16.094,2.645,20.896,7.935
		c4.803,5.289,7.211,12.999,7.211,23.13V370.847z M454.365,374.64v29.767v1.797h-55.152v21.581c0,6.513,0.947,11.029,2.844,13.549
		c1.908,2.521,5.152,3.793,9.742,3.793c4.779,0,8.135-1.073,10.043-3.219c1.896-2.121,2.844-6.837,2.844-14.123v-6.811v-1.796h29.68
		v1.796v7.51v1.796c0,12.7-3.605,22.257-10.84,28.694c-7.225,6.438-18.016,9.631-32.375,9.631c-12.912,0-23.066-3.418-30.49-10.229
		c-7.41-6.812-11.127-16.193-11.127-28.096v-1.796V374.64v-1.771c0-10.754,4.078-19.512,12.213-26.299
		c8.146-6.762,18.689-10.155,31.588-10.155c13.199,0,23.328,3.144,30.416,9.406c7.061,6.264,10.615,15.296,10.615,27.048V374.64z">
        </path>
    </symbol>

    <symbol id="time" viewBox="0 0 25 25">
        <path d="M17.1875 14.0625H10.9375V7.8125H14.0625V10.9375H17.1875V14.0625ZM23.4375 1.5625V23.4375H1.5625V1.5625H23.4375ZM20.3125 4.6875H4.6875V20.3125H20.3125V4.6875Z"/>
    </symbol>

    <symbol id="close" viewBox="0 0 24 24">
        <path d="M6 6L18 18M18 6L6 18" stroke-width="2" stroke-linecap="round" stroke-linejoin="round"/>
    </symbol>

    <symbol id="delete" viewBox="0 0 24 24">
        <g id="SVGRepo_bgCarrier" stroke-width="0"></g><g id="SVGRepo_tracerCarrier" stroke-linecap="round" stroke-linejoin="round"></g><g id="SVGRepo_iconCarrier"> <path d="M10 11V17"  stroke-width="2" stroke-linecap="round" stroke-linejoin="round"></path> <path d="M14 11V17"  stroke-width="2" stroke-linecap="round" stroke-linejoin="round"></path> <path d="M4 7H20"  stroke-width="2" stroke-linecap="round" stroke-linejoin="round"></path> <path d="M6 7H12H18V18C18 19.6569 16.6569 21 15 21H9C7.34315 21 6 19.6569 6 18V7Z"  stroke-width="2" stroke-linecap="round" stroke-linejoin="round"></path> <path d="M9 5C9 3.89543 9.89543 3 11 3H13C14.1046 3 15 3.89543 15 5V7H9V5Z"  stroke-width="2" stroke-linecap="round" stroke-linejoin="round"></path> </g>
    </symbol>

    <symbol id="phone" viewBox="0 0 32 32">
        <path d="M0 10.375c0 0.938 0.344 1.969 0.781 3.063s1 2.125 1.438 2.906c1.188 2.063 2.719 4.094 4.469 5.781s3.813 3.094 6.125 3.938c1.344 0.531 2.688 1.125 4.188 1.125 0.75 0 1.813-0.281 2.781-0.688 0.938-0.406 1.781-1.031 2.094-1.781 0.125-0.281 0.281-0.656 0.375-1.094 0.094-0.406 0.156-0.813 0.156-1.094 0-0.156 0-0.313-0.031-0.344-0.094-0.188-0.313-0.344-0.563-0.5-0.563-0.281-0.656-0.375-1.5-0.875-0.875-0.5-1.781-1.063-2.563-1.469-0.375-0.219-0.625-0.313-0.719-0.313-0.5 0-1.125 0.688-1.656 1.438-0.563 0.75-1.188 1.438-1.625 1.438-0.219 0-0.438-0.094-0.688-0.25s-0.5-0.281-0.656-0.375c-2.75-1.563-4.594-3.406-6.156-6.125-0.188-0.313-0.625-0.969-0.625-1.313 0-0.406 0.563-0.875 1.125-1.375 0.531-0.469 1.094-1.031 1.094-1.719 0-0.094-0.063-0.375-0.188-0.781-0.281-0.813-0.656-1.75-0.969-2.656-0.156-0.438-0.281-0.75-0.313-0.906-0.063-0.094-0.094-0.219-0.125-0.375s-0.094-0.281-0.125-0.406c-0.094-0.281-0.25-0.5-0.406-0.625-0.156-0.063-0.531-0.156-0.906-0.188-0.375 0-0.813-0.031-1-0.031-0.094 0-0.219 0-0.344 0.031h-0.406c-1 0.438-1.719 1.313-2.25 2.344-0.5 1.031-0.813 2.188-0.813 3.219z"></path>
    </symbol>

    <symbol id="email" viewBox="0 0 24 24">
        <path d="M22,5V9L12,13,2,9V5A1,1,0,0,1,3,4H21A1,1,0,0,1,22,5ZM2,11.154V19a1,1,0,0,0,1,1H21a1,1,0,0,0,1-1V11.154l-10,4Z"></path>
    </symbol>

    <symbol id="geo" viewBox="0 0 16 16">
         <path d="M12.166 8.94c-.524 1.062-1.234 2.12-1.96 3.07A31.493 31.493 0 0 1 8 14.58a31.481 31.481 0 0 1-2.206-2.57c-.726-.95-1.436-2.008-1.96-3.07C3.304 7.867 3 6.862 3 6a5 5 0 0 1 10 0c0 .862-.305 1.867-.834 2.94zM8 16s6-5.686 6-10A6 6 0 0 0 2 6c0 4.314 6 10 6 10z"></path> <path d="M8 8a2 2 0 1 1 0-4 2 2 0 0 1 0 4zm0 1a3 3 0 1 0 0-6 3 3 0 0 0 0 6z"></path> 
    </symbol>

    <symbol id="basket" viewBox="0 0 1024 1024">
        <path d="M1015.66 284a31.82 31.82 0 0 0-25.998-13.502H310.526l-51.408-177.28c-20.16-69.808-68.065-77.344-87.713-77.344H34.333c-17.569 0-31.777 14.224-31.777 31.776S16.78 79.425 34.332 79.425h137.056c4.336 0 17.568 0 26.593 31.184l176.848 649.936c3.84 13.712 16.336 23.183 30.591 23.183h431.968c13.409 0 25.376-8.4 29.905-21.024l152.256-449.68c3.504-9.744 2.048-20.592-3.888-29.024zM815.026 720.194H429.539L328.387 334.066h616.096zM752.003 848.13c-44.192 0-80 35.808-80 80s35.808 80 80 80 80-35.808 80-80-35.808-80-80-80zm-288 0c-44.192 0-80 35.808-80 80s35.808 80 80 80 80-35.808 80-80-35.808-80-80-80z"></path>
    </symbol>

    <symbol id="like" viewBox="0 0 24 24">
        <path d="M8.96173 18.9109L9.42605 18.3219L8.96173 18.9109ZM12 5.50063L11.4596 6.02073C11.601 6.16763 11.7961 6.25063 12 6.25063C12.2039 6.25063 12.399 6.16763 12.5404 6.02073L12 5.50063ZM15.0383 18.9109L15.5026 19.4999L15.0383 18.9109ZM9.42605 18.3219C7.91039 17.1271 6.25307 15.9603 4.93829 14.4798C3.64922 13.0282 2.75 11.3345 2.75 9.1371H1.25C1.25 11.8026 2.3605 13.8361 3.81672 15.4758C5.24723 17.0866 7.07077 18.3752 8.49742 19.4999L9.42605 18.3219ZM2.75 9.1371C2.75 6.98623 3.96537 5.18252 5.62436 4.42419C7.23607 3.68748 9.40166 3.88258 11.4596 6.02073L12.5404 4.98053C10.0985 2.44352 7.26409 2.02539 5.00076 3.05996C2.78471 4.07292 1.25 6.42503 1.25 9.1371H2.75ZM8.49742 19.4999C9.00965 19.9037 9.55954 20.3343 10.1168 20.6599C10.6739 20.9854 11.3096 21.25 12 21.25V19.75C11.6904 19.75 11.3261 19.6293 10.8736 19.3648C10.4213 19.1005 9.95208 18.7366 9.42605 18.3219L8.49742 19.4999ZM15.5026 19.4999C16.9292 18.3752 18.7528 17.0866 20.1833 15.4758C21.6395 13.8361 22.75 11.8026 22.75 9.1371H21.25C21.25 11.3345 20.3508 13.0282 19.0617 14.4798C17.7469 15.9603 16.0896 17.1271 14.574 18.3219L15.5026 19.4999ZM22.75 9.1371C22.75 6.42503 21.2153 4.07292 18.9992 3.05996C16.7359 2.02539 13.9015 2.44352 11.4596 4.98053L12.5404 6.02073C14.5983 3.88258 16.7639 3.68748 18.3756 4.42419C20.0346 5.18252 21.25 6.98623 21.25 9.1371H22.75ZM14.574 18.3219C14.0479 18.7366 13.5787 19.1005 13.1264 19.3648C12.6739 19.6293 12.3096 19.75 12 19.75V21.25C12.6904 21.25 13.3261 20.9854 13.8832 20.6599C14.4405 20.3343 14.9903 19.9037 15.5026 19.4999L14.574 18.3219Z"></path>
    </symbol>

    <symbol id="star" viewBox="0 0 24 24" >
        <path d="M9.15316 5.40838C10.4198 3.13613 11.0531 2 12 2C12.9469 2 13.5802 3.13612 14.8468 5.40837L15.1745 5.99623C15.5345 6.64193 15.7144 6.96479 15.9951 7.17781C16.2757 7.39083 16.6251 7.4699 17.3241 7.62805L17.9605 7.77203C20.4201 8.32856 21.65 8.60682 21.9426 9.54773C22.2352 10.4886 21.3968 11.4691 19.7199 13.4299L19.2861 13.9372C18.8096 14.4944 18.5713 14.773 18.4641 15.1177C18.357 15.4624 18.393 15.8341 18.465 16.5776L18.5306 17.2544C18.7841 19.8706 18.9109 21.1787 18.1449 21.7602C17.3788 22.3417 16.2273 21.8115 13.9243 20.7512L13.3285 20.4768C12.6741 20.1755 12.3469 20.0248 12 20.0248C11.6531 20.0248 11.3259 20.1755 10.6715 20.4768L10.0757 20.7512C7.77268 21.8115 6.62118 22.3417 5.85515 21.7602C5.08912 21.1787 5.21588 19.8706 5.4694 17.2544L5.53498 16.5776C5.60703 15.8341 5.64305 15.4624 5.53586 15.1177C5.42868 14.773 5.19043 14.4944 4.71392 13.9372L4.2801 13.4299C2.60325 11.4691 1.76482 10.4886 2.05742 9.54773C2.35002 8.60682 3.57986 8.32856 6.03954 7.77203L6.67589 7.62805C7.37485 7.4699 7.72433 7.39083 8.00494 7.17781C8.28555 6.96479 8.46553 6.64194 8.82547 5.99623L9.15316 5.40838Z"></path>
    </symbol>

    <symbol id="adress" viewBox="0 0 512 512">
        <polygon points="442.531,218 344.828,120.297 256,31.469 167.172,120.297 69.438,218.047 0,287.469 39.984,327.453 109.406,258.031 207.156,160.281 256,111.438 304.844,160.281 402.531,257.984 472.016,327.453 512,287.469 "></polygon> <polygon points="85.719,330.375 85.719,480.531 274.75,480.531 274.75,361.547 343.578,361.547 343.578,480.531 426.281,480.531 426.281,330.328 256.016,160.063 "></polygon> 
    </symbol>

    <symbol id="profile" viewBox="0 0 20 20">
        <g stroke-width="1" fill-rule="evenodd"> <g transform="translate(-380.000000, -2159.000000)"> <g transform="translate(56.000000, 160.000000)"> <path d="M334,2011 C337.785,2011 340.958,2013.214 341.784,2017 L326.216,2017 C327.042,2013.214 330.215,2011 334,2011 M330,2005 C330,2002.794 331.794,2001 334,2001 C336.206,2001 338,2002.794 338,2005 C338,2007.206 336.206,2009 334,2009 C331.794,2009 330,2007.206 330,2005 M337.758,2009.673 C339.124,2008.574 340,2006.89 340,2005 C340,2001.686 337.314,1999 334,1999 C330.686,1999 328,2001.686 328,2005 C328,2006.89 328.876,2008.574 330.242,2009.673 C326.583,2011.048 324,2014.445 324,2019 L344,2019 C344,2014.445 341.417,2011.048 337.758,2009.673"> </path> </g> </g> </g>
    </symbol>
</svg>
